<svg xmlns="http://www.w3.org/2000/svg" width="100.679" height="820.305" viewBox="0 0 100.679 820.305">
  <g id="QRNhEL.tif" transform="matrix(-0.999, 0.035, -0.035, -0.999, 100.679, 820.143)" opacity="0.4">
    <g id="Group_7" data-name="Group 7" transform="translate(0 0)">
      <g id="Group_6" data-name="Group 6">
        <path id="Path_92" data-name="Path 92" d="M8.281,0A30.988,30.988,0,0,0,8.5,16.746a40.17,40.17,0,0,1,.715,20.782C5.647,52.89,5.356,68.391,5.2,83.92c-.274,26.94.324,53.89-.2,80.823-.331,17.109-.124,34.411-1.968,51.289C.629,238.081,2.241,260,1.341,281.938c-.8,19.487-1.8,38.974-1.11,58.489a1.23,1.23,0,0,0,1.861-.285c2.46-7.5.694-15.216,1.21-22.818-.217-2.2-.11-4.4-.125-6.606,3.189-28.883,1.52-57.905,2.609-86.835.445-11.856.5-23.708.84-35.56.075-2.534-.025-5.068.829-7.51.74-15.383.213-30.773.32-46.163.1-13.835.007-27.669.025-41.5.011-7.193-.366-14.411,1.111-21.523-.1-10.183.388-20.309,3.04-30.207.594-8.307.89-16.611-.192-24.9a16.25,16.25,0,0,1-.569-1.9,13.1,13.1,0,0,0-.512-1.879C9.274,9.08,10.666,5.122,9.5,1.442A2.963,2.963,0,0,0,8.281,0Z" transform="translate(43.579 237.283)" fill="#e2d8cf"/>
        <path id="Path_93" data-name="Path 93" d="M8.568,260.1a18.558,18.558,0,0,1-1.338-7.987C7.28,205.464,8,158.8,6.967,112.169c-.463-20.832.085-41.707-1.2-62.493-.79-12.87-.634-25.712-.861-38.564C4.835,6.848,3.995,3.182,1.222,0-1.138,4.677.56,9.638,1.048,14.2c1.327,12.4.594,24.811,1.185,37.2a11.238,11.238,0,0,0,.374,2.118c1.125,14.9.762,29.8.153,44.708a8.752,8.752,0,0,0,.032,2.221c1.424,7.108,1.605,14.287,1.591,21.519q-.107,64.4.007,128.809c0,3.2-.865,6.741,2.089,9.322A1.79,1.79,0,0,0,8.568,260.1Z" transform="translate(65.715 217.771)" fill="#e2d8cf"/>
        <path id="Path_94" data-name="Path 94" d="M17.3,0c-1.228,6.528-2.4,13.066-3.687,19.579-2.538,12.842-1.708,26.171-6.286,38.8-2.21,6.09-.1,13.162-1.566,19.686C3.35,88.831,4.1,99.808,4.631,110.614c.74,15.1-2.94,29.552-4.631,44.288,1.331.4,2.157-.331,2.872-1.324a6,6,0,0,0,.573-1.655,28.488,28.488,0,0,1,1.128-6.1,14.559,14.559,0,0,0,.388-2.908c4.645-19.455.922-39.322,2.919-58.9.587-2.314.5-4.755,1.331-7.022a102.242,102.242,0,0,1,4.57-29.677c1.84-5.972-.669-12.838,2.381-18.878.936-5.293-.655-10.945,2.21-15.97C18.718,8.25,19.943,3.951,17.3,0Z" transform="translate(25.557 579.013)" fill="#e2d8cf"/>
        <path id="Path_95" data-name="Path 95" d="M7.752,75.205c.082-17.6.036-35.187-2.531-52.655-2.993-4.278-1.349-9.194-1.8-13.817C3.154,5.9,3.2,3.035,3.1.184A1.32,1.32,0,0,0,1.246.707C-.9,8.733.353,16.87.481,24.977c.207,13.379,3.442,26.491,3.25,39.931C3.677,68.585,2.705,73.3,7.752,75.205Z" transform="translate(61.715 195.221)" fill="#e2d8cf"/>
        <path id="Path_96" data-name="Path 96" d="M.662,93.224c4.118-.755,6.282-4.4,7.475-7.41C10.29,80.375,13.767,75.677,15,69.587,16.931,60.048,21.121,51,23.445,41.515c2.837-11.564,7.065-22.793,8.332-34.749.224-2.1.73-4.179,1.1-6.268A1.857,1.857,0,0,0,31.172.05a5.325,5.325,0,0,0-2.8,3.609c-1.039,15.778-6.9,30.385-10.571,45.526-1.477,6.086-4.755,11.386-6,17.454,1.416,6.375-4.072,10.468-5.168,16.006C4.8,85.981,1.7,88.373,0,91.8A1.766,1.766,0,0,0,.662,93.224Z" transform="translate(23.746 721.567)" fill="#e2d8cf"/>
        <path id="Path_97" data-name="Path 97" d="M17.23,0,15.184,1.5c-3.05,3.218-3.915,7.147-4.687,11.5C8.624,23.584,6.243,34.1,3.51,44.5A94.162,94.162,0,0,0,.018,70.672a1.218,1.218,0,0,0,1.676-.235c1.62-3.168,1.171-6.795,2.175-10.1a173.1,173.1,0,0,1,4.1-18.725,22.038,22.038,0,0,0,.516-5.179,11.565,11.565,0,0,1,1.384-6.161,9.911,9.911,0,0,0,.552-1.527,23.729,23.729,0,0,1,2.691-7.677c2.075-4.072.57-8.645,1.78-12.835.445-2.31,2.438-3.776,3.164-5.933A2.214,2.214,0,0,0,17.23,0Z" transform="translate(10.373 732.416)" fill="#e2d8cf"/>
        <path id="Path_98" data-name="Path 98" d="M2.1,90.846c3.3-12.827,3.67-26.021,4.168-39.12C6.842,36.742,8.561,21.783,7.65,6.752A15.6,15.6,0,0,1,9.02.527C8.707.352,8.4.178,8.087,0c-3.62,1.235-3.339,4.424-3.26,7.247.356,12.778-.616,25.5-1.214,38.244a18.527,18.527,0,0,1-.63,4.581A15.176,15.176,0,0,0,2.5,53.214c.043,9.04.2,18.067-2,26.972a17.91,17.91,0,0,0,.22,9.158A2.925,2.925,0,0,0,2.1,90.846Z" transform="translate(65.313 535.344)" fill="#e2d8cf"/>
        <path id="Path_99" data-name="Path 99" d="M0,.3C2.328,6.273,1.815,12.551,1.7,18.741A57.642,57.642,0,0,0,5.464,41.577a14.729,14.729,0,0,1,.509,10.318C3.684,58.213,3.961,63.978,7.143,69.741A3.391,3.391,0,0,0,8.471,67.3a8.966,8.966,0,0,0-.21-2.84,20.594,20.594,0,0,1,.3-11.051c.634-5.67.886-11.432-1.114-16.789C3.517,26.076,4.435,15.128,4.125,4.262A5.165,5.165,0,0,0,1.787.183,1.812,1.812,0,0,0,0,.3Z" transform="translate(47.069 125.931)" fill="#e2d8cf"/>
        <path id="Path_100" data-name="Path 100" d="M13.468,51.459C12.262,41.931,12.642,32.14,8.5,23.1a13.132,13.132,0,0,1-.7-6.282C8.389,9.848,4.684,4.883.673,0A2.9,2.9,0,0,0,0,1.687,6.4,6.4,0,0,0,1.086,5.556c3.8,4.727,4.2,10.258,3.926,15.985,1.641,8.8,4.232,17.419,4.79,26.424a4.691,4.691,0,0,0,1.851,3.513A1.6,1.6,0,0,0,13.468,51.459Z" transform="translate(46.714 102.861)" fill="#e2d8cf"/>
        <path id="Path_101" data-name="Path 101" d="M2.007,55.666c.819-13.536,7.243-26.26,5.549-40.184-.612-5.033.623-10,1.363-14.96L8.268,0C6.36.317,5.73,1.833,5.147,3.4,4.431,6.638,4.8,9.93,4.666,13.2A73.764,73.764,0,0,1,.755,41.145,31.312,31.312,0,0,0,.63,54.232,2.713,2.713,0,0,0,2.007,55.666Z" transform="translate(58.498 625.667)" fill="#e2d8cf"/>
        <path id="Path_102" data-name="Path 102" d="M3.189,0l-1.2.039C-1,4.25.188,9.08.47,13.571c.512,8.136,2.74,16.042,4.2,24.053A5.508,5.508,0,0,0,6.6,41.1l1.224-.018L7.8,29.346C5.766,19.643,3.16,10.037,3.207,0Z" transform="translate(56.993 154.321)" fill="#e2d8cf"/>
        <path id="Path_103" data-name="Path 103" d="M2.258,58c.26-.516.744-1.029.744-1.545Q3.049,28.99,2.976,1.53c0-.512-.5-1.021-.769-1.53C2,.167,1.8.338,1.6.505-.64,3.63.118,7.289.143,10.685.229,23.7.072,36.721.111,49.737c.011,2.662-.36,5.506,1.6,7.8C1.894,57.688,2.076,57.841,2.258,58Z" transform="translate(72.076 477.873)" fill="#e2d8cf"/>
        <path id="Path_104" data-name="Path 104" d="M0,9.738c5.591,3.474,3.652,8.987,3.666,13.97a1.066,1.066,0,0,0,1.317.182,8.765,8.765,0,0,1,2.193-1.733,3.344,3.344,0,0,0,1.071-.822l.075-5.656c.391-.648,1.174-.947,1.47-1.684a3.652,3.652,0,0,0-1.566-3.3c-7.78.933-5.136-5-5.659-8.855C3.235.548,2.534.142,1.424,0-.3,1.438.334,3.456.167,5.275A36.716,36.716,0,0,1,0,9.738Z" transform="translate(28.796 57.951)" fill="#e2d8cf"/>
        <path id="Path_105" data-name="Path 105" d="M1.363.1.815,0,.256.046C-1.388,7.215,5.363,11,7.089,16.881c.363,1.239,4.6,2.1,5.766-1.47.409-1.256.178-2.741,1.416-3.666l-.327-1.392c-7.5-.3-8.6-1.039-10.236-6.937C3.288,2.05,2.765.755,1.363.1Z" transform="translate(10.136 803.041)" fill="#e2d8cf"/>
        <path id="Path_106" data-name="Path 106" d="M1.724,33.6l.488,1.865A1.564,1.564,0,0,0,3.6,34.9a7.727,7.727,0,0,0,.879-2.285c.292-1.086.641-2.153.915-3.246.456-3.556,1.794-6.99,1.392-10.66A9.845,9.845,0,0,0,6.148,16C4.165,12.536,4.3,8.557,3.524,4.809,3.179,3.125,3.4,1.3,1.948,0,.033,1.118-.394,2.4.335,4.773c1.634,5.3,1.143,11.012,2.9,16.412C4.585,25.31,2.108,29.428,1.724,33.6Z" transform="translate(50.137 203.684)" fill="#e2d8cf"/>
        <path id="Path_107" data-name="Path 107" d="M0,7.275c4.235,5.6,3.2,12.525,4.6,18.839,1.726-1.356,1.449-3.349,1.537-5.189.1-2.111.164-4.182,2.15-5.51C8.307,9.809,3.193,5.766,3.73,0,1.587,1.384,2.62,4.424.719,5.933A5.668,5.668,0,0,0,0,7.275Z" transform="translate(33.498 81.435)" fill="#e2d8cf"/>
        <path id="Path_108" data-name="Path 108" d="M1.444,41.191l1.324.053c-.381-7.514,3.577-14.525,2.5-22.121,1.192-2.68-.449-5.709,1-8.354Q6.456,5.64,6.648.509C6.435.342,6.221.171,6.011,0c-3.9,1.968-1.651,6.232-3.3,9.048-.53,8.14-1.438,16.237-2.431,24.331C-.047,36.055-.463,38.821,1.444,41.191Z" transform="translate(53.858 680.821)" fill="#e2d8cf"/>
        <path id="Path_109" data-name="Path 109" d="M0,10.745C.441,16.362-.484,22.266,3.371,27.16a2.846,2.846,0,0,0,.861-2.331c-.239-4.132-1.57-8.168-1.064-12.372.192-.541.345-1.093.5-1.648.167-.573.313-1.146.466-1.723C4.524,5.9,6.421,2.442,2.584,0L2.128,2.733C1.9,5.535,1.787,8.371,0,10.745Z" transform="translate(52.084 192.939)" fill="#e2d8cf"/>
        <path id="Path_110" data-name="Path 110" d="M.2,0C-.7,10.176,1.537,19.843,4.793,29.346,6.221,25.5,4.142,22.1,3.16,18.7,1.387,12.553,2.063,6.079.2,0Z" transform="translate(59.998 154.321)" fill="#e2d8cf"/>
        <path id="Path_111" data-name="Path 111" d="M1.434,13.694c1.491-.9,1.271-2.385,1.235-3.8C2.2,7.964,1.2,6,3.071,4.244q.465.769.929,1.545.528-.8,1.057-1.605c.758-1.278,1.068-2.83-.249-3.62C3.239-.383,1.466-.251.516,1.835.2,5.835-.844,9.9,1.434,13.694Z" transform="translate(27.362 53.995)" fill="#e2d8cf"/>
        <path id="Path_112" data-name="Path 112" d="M3.687.625C1.523-.439.1-.382.174,2.686.245,5.562.068,8.445,0,11.324l.085-.1a1.069,1.069,0,0,0,1.377.15C2.912,9.377,2.769,6.352,5.4,5.124a2.174,2.174,0,0,0,.762-1.3Z" transform="translate(38.1 96.225)" fill="#e2d8cf"/>
        <path id="Path_113" data-name="Path 113" d="M4.488,5.761C7.161,4.231,9.193,3.989,9.03,8.11c1.915-1.94,3.364-4.2-.851-4.428C4.976,3.512,3.933-.279,0,.016Z" transform="translate(23.39 50.069)" fill="#e2d8cf"/>
        <path id="Path_114" data-name="Path 114" d="M1.406,8.66l3.769,3.2C4.627,7.318,4.684,2.769.623,0A1.56,1.56,0,0,0,0,1.313C.31,3.3,1.178,5.157,1.306,7.182A10.312,10.312,0,0,1,1.406,8.66Z" transform="translate(12.235 11.183)" fill="#e2d8cf"/>
        <path id="Path_115" data-name="Path 115" d="M1.271,0,0,.043c1.651,4.57.708,9.8,3.463,14.084a1.106,1.106,0,0,0,1.595-.189c2.1-3.855-1.434-7-1.278-10.617C3.381,1.876,3.456.053,1.271,0Z" transform="translate(38.186 107.403)" fill="#e2d8cf"/>
        <path id="Path_116" data-name="Path 116" d="M8.24,6.965C8.443,2.783,5.6,1.239,2.4,0,1.687.591.463.153,0,1.235L2.4,4.684C4.73,4.075,4.858,6.535,6.108,7.442A1.879,1.879,0,0,0,8.24,6.965Z" transform="translate(2.244 3.11)" fill="#e2d8cf"/>
        <path id="Path_117" data-name="Path 117" d="M0,2.269l1.214,3.5c1.182,1.014,2.417.8,3.673.178A8.175,8.175,0,0,0,4.623.134C2.445-.582,1.648,1.789,0,2.269Z" transform="translate(37.022 66.374)" fill="#e2d8cf"/>
        <path id="Path_118" data-name="Path 118" d="M.171,1.3,0,14.066c.27.139.541.274.811.413a2.115,2.115,0,0,0,1.331-1.16c1.185-3.527.231-7.282,1.114-10.845A2.85,2.85,0,0,0,2.281.007L1.121,0Z" transform="translate(42.688 577.71)" fill="#e2d8cf"/>
        <path id="Path_119" data-name="Path 119" d="M2.244,4.345,4.64,3.11C3.3,2.256,3.4-.363,1.091.042.7.11.219.776.123,1.238-.244,2.968.137,4.3,2.244,4.345Z" transform="translate(0 0)" fill="#e2d8cf"/>
        <path id="Path_120" data-name="Path 120" d="M4.485.779,1.121.811Q.561,1.548,0,2.292c3.431-.7,6.631-.858,7.923,3.47,1.42-.858.651-2.417,1.118-3.577A3.017,3.017,0,0,0,6.716,0C6,.349,5.079.075,4.485.779Z" transform="translate(37.114 71.334)" fill="#e2d8cf"/>
        <path id="Path_121" data-name="Path 121" d="M3.744.368,2.032.325A1.443,1.443,0,0,0,0,.531L3.552,5.269a1.13,1.13,0,0,0,1.321.085C4.378,4,5.225,3.279,6.143,2.592a6.879,6.879,0,0,1-.025-1.118C5.328,1.1,4.534.738,3.744.368Z" transform="translate(6.74 9.708)" fill="#e2d8cf"/>
        <path id="Path_122" data-name="Path 122" d="M1.5,9.311C4.682,7.759,3.2,4.563,3.952,2.15,3.892,1.434,3.828.719,3.767,0L2.6.011C.752,1.862,1.56,4.716.147,6.734-.365,8.115.549,8.724,1.5,9.311Z" transform="translate(33.276 79.285)" fill="#e2d8cf"/>
        <path id="Path_123" data-name="Path 123" d="M2.1,4.587c.676-.068,1.353-.139,2.032-.206C3.99,2.64,3.712.811,1.94.131.359-.474.352,1.156,0,2.139Z" transform="translate(4.64 5.652)" fill="#e2d8cf"/>
        <path id="Path_124" data-name="Path 124" d="M1.137.046A8.221,8.221,0,0,0,.029,0C-.323,4.136,2.546,4.442,5.45,4.7a.467.467,0,0,1,.591-.014,2.61,2.61,0,0,0-.933-2.726A7.769,7.769,0,0,0,1.137.046Z" transform="translate(41.619 121.526)" fill="#e2d8cf"/>
        <path id="Path_125" data-name="Path 125" d="M2.422,7.047,1.507,4.538C2.433,2.912,2.607,1.367,1.048,0a7.514,7.514,0,0,1-.94.11c0,2.4-.608,4.9,1.036,7.051Z" transform="translate(32.354 81.549)" fill="#e2d8cf"/>
        <path id="Path_126" data-name="Path 126" d="M1.19,0C-.857,2.57.407,5.552.186,8.354,2.009,5.752.962,2.8,1.19,0Z" transform="translate(58.931 691.591)" fill="#e2d8cf"/>
        <path id="Path_127" data-name="Path 127" d="M1.114,0C-.174.9.167,2.317,0,3.577,2.452,3.506,2.627,2.951,1.114,0Z" transform="translate(45.041 73.519)" fill="#e2d8cf"/>
        <path id="Path_128" data-name="Path 128" d="M0,5.609A2.127,2.127,0,0,0,2.235,4.83Q1.141,2.417.046,0Z" transform="translate(41.599 66.504)" fill="#e2d8cf"/>
        <path id="Path_129" data-name="Path 129" d="M1.066.032.547,0,.023.036C-.19,2.6,1.066,4.125,3.376,4.9c.171-.238.342-.477.506-.722C3.672,2.289,2.978.733,1.066.032Z" transform="translate(10.268 14.941)" fill="#e2d8cf"/>
        <path id="Path_130" data-name="Path 130" d="M3.576,4.118l.153-1.31A5.659,5.659,0,0,0,.608,0c-.2.246-.4.488-.6.73A3.272,3.272,0,0,0,1.081,3.218,2.72,2.72,0,0,0,3.576,4.118Z" transform="translate(43.657 100.053)" fill="#e2d8cf"/>
        <path id="Path_131" data-name="Path 131" d="M34.742,7.158,36.162,9.5l2.175,2.313c.893,1.637.551,3.431.473,5.136-.459,9.941.142,19.733,3.549,29.186C43.426,49.1,43.4,52.2,43.508,55.31c.256,7.659-1.936,15.358.932,23.028.819,2.189,1.071,5.439-1.324,7.62a7.224,7.224,0,0,0,.043.957c.872,6.022.093,12.344,2.8,18.031,1.925,4.043-1.367,6.916-1.879,10.407-4.025,12.771,1.032,25.527.039,38.326-.719,9.3-2.15,18.5-2.915,27.758-.719,8.71-2.413,17.334-2.378,26.111.043,9.759-.054,19.519.021,29.275.431,56.19-1.2,112.365-1.409,168.551-.039,10.642-2.079,21.555-3.691,32.279q-.139,11.676-.281,23.352c.046.808.1,1.616.142,2.427-.794,6.086-1.054,12.23-1.477,18.341-.328,4.769-1.249,9.158-3.833,13.151-1.726,5.812-.285,11.92-1.6,17.764-.534,4.421-.046,9.073-2.808,13.005a6.483,6.483,0,0,0-.53,1.74c-.2,2.435.036,4.912-.68,7.3a39.769,39.769,0,0,1-1.21,10.567c-1.224,14.728-.409,29.477-.466,44.209-.025,7.1-1.612,13.788-3.424,20.5-.968,1.445-.278,3.328-1.214,4.784a1.419,1.419,0,0,0-.264.908l.164,2.566c-.993,1.676-2.349,3.082-3.445,4.68-2.769,4.36.239,9.67-2.249,14.077-1.029,2.684-.989,5.677-2.331,8.268l.018-.029a31.536,31.536,0,0,0-2.171,6.257L5.8,656.989a151.756,151.756,0,0,1-4.3,18.992c-1.933,3.274-.858,6.99-1.5,10.453q.641,1.7,1.278,3.4c3.552,8.556,9.386,9.311,14.981,1.968,1.377-1.8,3.182-3.3,3.915-5.567.078-5.314,5.481-8.809,4.77-14.4-.516-6.179,4.435-10.546,5.172-16.39,1.182-9.354,6.567-17.668,6.819-27.292.651-2.947.683-6.076,2.491-8.688,1.99-3.848,1.491-8.1,1.94-12.2a12.373,12.373,0,0,0,.765-3.976c-1.164-12.18,1.915-23.779,4.588-35.439a38.194,38.194,0,0,1,.687-5.047c.309-11.834-.327-23.719,3.919-35.18,1.979-5.339.448-11.233.94-16.86.986-11.2,1.979-22.405,3.88-33.489.189-1.157.537-2.292.7-3.456a4.6,4.6,0,0,1,1.086-2.136l.039-2.246c1.239-6.357.836-12.867.829-19.216-.014-21.822,2.851-43.608,1.8-65.369-2.787-57.571-.936-115.155-1.612-172.73a78.037,78.037,0,0,0-.972-11.607.75.75,0,0,0-.007-.819c.7-15.33.765-30.663-.043-46l0,.018c-1.9-1.719-2.257-4.421-2.136-6.41.733-11.749-2.082-23.164-2.712-34.777-.609-11.272-1.506-22.516-1.025-33.816-.89-12.03-5.431-23.562-4.748-35.806.1-1.751.093-3.506.139-5.257C45.572,27.488,44.43,17.173,41.639,7.182c-.943-1.15-.228-2.659-.811-3.89C40.287,1.58,39.557-.381,37.5.064c-2.11.456-2.449,2.709-2.822,4.624A8.843,8.843,0,0,0,34.742,7.158Z" transform="translate(11.499 116.711)" fill="#e2d8cf"/>
        <path id="Path_132" data-name="Path 132" d="M0,325.147a46.618,46.618,0,0,0,3.086-17.5c-.146-5.538,2.7-10.685,2.684-16.533Q5.5,193.629,5.791,96.142c.011-6.4,1.452-12.678,2.338-19.006,2.559-18.33,4.947-36.756,2.456-55.321-.925-6.894.7-13.557.936-20.337A.909.909,0,0,0,11.375,0C8.154.441,10.8,3.716,9.09,4.887a2.173,2.173,0,0,0-.883,2.328A149.593,149.593,0,0,0,8.14,22.533a3.929,3.929,0,0,0-.046,1.061c.594.484,1.385,1,1.381,1.755-.028,8.813,1.249,17.664-.722,26.424C7.535,60.76,6.293,69.747,5.648,78.8c-1.993,22.437-.5,44.921-.9,67.38-.253,14.265-.249,28.534-.36,42.8a5.644,5.644,0,0,0-.455,2.844c.477,28.794-2.31,57.556-1.039,86.336.616,13.9-3.04,27.371-2.766,41.166Z" transform="translate(45.251 229.218)" fill="#e2d8cf"/>
        <path id="Path_133" data-name="Path 133" d="M.406,130.346c1.071-8.795,2.758-17.572,3.075-26.4.516-14.4.061-28.844.164-43.266C3.791,40.454,5.61,20.252,4.666,0,3.392,1.228,3.581,2.837,3.591,4.381,3.808,35.155,1.41,65.9,2.388,96.676,2.748,107.973-1.256,118.985.406,130.346Z" transform="translate(44.977 418.206)" fill="#e2d8cf"/>
        <path id="Path_134" data-name="Path 134" d="M.094,29.5C1.237,20.533,3.678,11.742,3.632,2.616A1.937,1.937,0,0,0,3.458,0,90.139,90.139,0,0,0,.094,29.5Z" transform="translate(50.805 278.524)" fill="#e2d8cf"/>
        <path id="Path_135" data-name="Path 135" d="M.918,25.712Q1,27.02,1.093,28.328c2.182-8.973.883-18.038.641-27.072C1.723.822.6.42,0,0,2.328,8.5.815,17.134.918,25.712Z" transform="translate(53.344 252.812)" fill="#e2d8cf"/>
        <path id="Path_136" data-name="Path 136" d="M.86,15.319A25.617,25.617,0,0,0,.928,0C.836.783.746,1.562.654,2.346a26.933,26.933,0,0,0,0,11.8Z" transform="translate(52.53 236.433)" fill="#e2d8cf"/>
        <path id="Path_137" data-name="Path 137" d="M1.05,11.8q0-5.9,0-11.8A1.515,1.515,0,0,0,.21.37C.416,4.186-.815,8.111,1.05,11.8Z" transform="translate(52.134 238.778)" fill="#e2d8cf"/>
        <path id="Path_138" data-name="Path 138" d="M.4,0C.351,4.082.255,8.165.255,12.247.237,59.091.163,105.937.284,152.78c.028,12.375,1.05,24.754.957,37.126C1.063,214.5.419,239.1,0,263.693c-.028,1.74.231,3.484.36,5.229C1.508,255.09,3.181,241.3,2.536,227.357c-.142-3.121-1.021-6.72,2.143-9.172q-.053-28.515-.114-57.03c-2.993-2.064-2.047-5.271-2.05-8.047Q2.44,85.742,2.579,18.38A66.3,66.3,0,0,0,.4,0Z" transform="translate(69.11 317.224)" fill="#e2d8cf"/>
        <path id="Path_139" data-name="Path 139" d="M.462,0C-.107,15.333-.214,30.666.5,46A356.1,356.1,0,0,0,.462,0Z" transform="translate(69.002 270.409)" fill="#e2d8cf"/>
        <path id="Path_140" data-name="Path 140" d="M.859,54.59c1.669-3.474.584-7.207.975-10.8,1.353-2.2-.4-4.919,1.132-7.094l0,.011c2.253-4,2.822-8.471,3.445-12.924.139-6.254-.093-12.532,1.228-18.707C8.266,3.533,9.892,2.28,8.988.291a1.129,1.129,0,0,0-1.516,0A20.928,20.928,0,0,0,5.223,11.513c.366,6.67-1.595,12.881-3.467,19.145C-.041,36.684.457,42.934.492,49.123.051,50.985-.5,52.853.859,54.59Z" transform="translate(32.942 606.811)" fill="#e2d8cf"/>
        <path id="Path_141" data-name="Path 141" d="M5.363,5.463Q5.176,2.735,5,0,4.457,3.1,3.914,6.2c-1.142,12.578-.487,25.189-.377,37.774A78.216,78.216,0,0,1,.5,67.323L.334,69.334c-.4,1.061-.626,2.1.427,2.936A33.758,33.758,0,0,0,5.174,55.624Q5.313,30.542,5.363,5.463Z" transform="translate(28.438 655.938)" fill="#e2d8cf"/>
        <path id="Path_142" data-name="Path 142" d="M.043,61.119A24.84,24.84,0,0,0,3.5,47.875C3.556,31.919,3.477,15.96,3.452,0c-1.726,1.562-1,3.63-1.011,5.492-.043,11.094-.523,22.22.182,33.268C3.115,46.516-.427,53.527.043,61.119Z" transform="translate(28.899 662.142)" fill="#e2d8cf"/>
        <path id="Path_143" data-name="Path 143" d="M.042,15.33l1.2-.018c1.6-1.765,1.929-4.008,2.3-6.239-.189-2.9.715-5.915-.8-8.692L2.316,0C-1.339,4.666.565,10.183.042,15.33Z" transform="translate(40.372 591.776)" fill="#e2d8cf"/>
        <path id="Path_144" data-name="Path 144" d="M1.342,2.936Q1.128,1.468.915,0a13.412,13.412,0,0,0-.9,6.236C1.452,5.549,1.149,4.139,1.342,2.936Z" transform="translate(27.857 725.272)" fill="#e2d8cf"/>
        <path id="Path_145" data-name="Path 145" d="M11.553,20.2c-.876,5.31-2.5,10.51-3.616,15.636C5.791,45.665.349,54.513,0,64.757c.381.541.769.541,1.157.011,3.5-10.806,8.022-21.405,10.2-32.478C13.443,21.665,19.263,11.721,17.551.356A.851.851,0,0,0,16.219.288c.644,4.182-1.246,7.83-2.37,11.639C12.657,14.564,12.582,17.519,11.553,20.2Z" transform="translate(35.861 724.176)" fill="#e2d8cf"/>
        <path id="Path_146" data-name="Path 146" d="M.32,40.024l1.331.068,1.89-2.52c-.715-7.752,2.26-15.12,2.271-22.8,0-3.267.242-6.531.374-9.8C6.681,3.26,7.282,1.534,5.755,0,.605,12.874-.7,26.285.32,40.024Z" transform="translate(51.761 684.441)" fill="#e2d8cf"/>
        <path id="Path_147" data-name="Path 147" d="M18.284,0c-.893,1.228-1.826,2.427-2.677,3.684C9.873,12.162,4.951,11.215,0,3.748c.42,7.14,4.752,9.763,11.3,6.851a26.352,26.352,0,0,0,7.208-7.98A1.72,1.72,0,0,0,18.284,0Z" transform="translate(12.776 802.796)" fill="#e2d8cf"/>
        <path id="Path_148" data-name="Path 148" d="M.086,13.867l.228,2.62c1.2-5.745,6.965-9.855,5.73-16.472L5.467,0l-.58,0C4.389,5.019-.719,8.386.086,13.867Z" transform="translate(30.974 788.929)" fill="#e2d8cf"/>
        <path id="Path_149" data-name="Path 149" d="M0,18.992A38.33,38.33,0,0,0,4.3,0,69.012,69.012,0,0,0,0,18.992Z" transform="translate(12.997 773.699)" fill="#e2d8cf"/>
        <path id="Path_150" data-name="Path 150" d="M.019,8.268C2.531,6.015,2.4,3,2.35,0,.3,2.385-.1,5.253.019,8.268Z" transform="translate(19.723 753.739)" fill="#e2d8cf"/>
        <path id="Path_151" data-name="Path 151" d="M.1,6.257C1.326,4.349,2.412,2.4,2.273,0A6.3,6.3,0,0,0,.1,6.257Z" transform="translate(17.486 761.979)" fill="#e2d8cf"/>
        <path id="Path_152" data-name="Path 152" d="M0,4.68C1.926,3.709,3.424,2.417,3.445,0,1.673,1.086.135,2.349,0,4.68Z" transform="translate(24.322 734.982)" fill="#e2d8cf"/>
        <path id="Path_153" data-name="Path 153" d="M5.832,0,4.665,1.164C2.6,4.887,4.3,9.2,2.86,13.013,1.7,14.8.276,16.5.806,18.9c.434,4.011.9,8.026-.388,11.984C-.233,33.129.07,35.432.073,37.717A2.989,2.989,0,0,0,1.38,40.291q.9-1.506,1.787-3.015c-.3-11.009,3.844-21.619,2.851-32.7C5.878,3.061,5.889,1.527,5.832,0Z" transform="translate(63.6 588.391)" fill="#e2d8cf"/>
        <path id="Path_154" data-name="Path 154" d="M4.829,74.142c3.748-2.317,2.164-6.093,1.727-8.973a63.463,63.463,0,0,1-.744-11.621c.3-9.592.1-19.056-3.371-28.232C.188,19.355,1.427,12.956,1.089,6.748.964,4.481,1.783,2.025.05,0-.086,12.959-.26,25.879,4.21,38.379c1.495,4.189.658,8.827.388,13.269A22.064,22.064,0,0,0,4.52,62.216c.121.733.242,1.463.363,2.2C6.527,67.665,5.638,70.9,4.829,74.142Z" transform="translate(49.785 128.527)" fill="#e2d8cf"/>
        <path id="Path_155" data-name="Path 155" d="M1.331,10.567Q1.368,5.282,1.409,0A10.878,10.878,0,0,0,1.331,10.567Z" transform="translate(52.975 180.175)" fill="#e2d8cf"/>
        <path id="Path_156" data-name="Path 156" d="M7.572,17.558c.135,1.256-.043,2.616,1.125,3.531,1.5-7.645-2.52-13.586-5.9-19.722L.667,0A2.373,2.373,0,0,0,.027,2.114a7.354,7.354,0,0,0,.495,1.47c1.025,2.381,2.552,4.5,3.538,6.9C5.117,12.9,7.134,14.824,7.572,17.558Z" transform="translate(44.441 102.805)" fill="#e2d8cf"/>
        <path id="Path_157" data-name="Path 157" d="M1.237,28.656C4.665,23.737,4.4,17.828,5.252,12.28c.6-3.944.253-8.037.327-12.062A.936.936,0,0,0,4.117.559C3.729,5.6,1.369,10.162.632,15.123c-.075,2.855.466,5.745-.495,8.553A10.845,10.845,0,0,0,.159,27.25,2.586,2.586,0,0,0,1.237,28.656Z" transform="translate(59.051 638.58)" fill="#e2d8cf"/>
        <path id="Path_158" data-name="Path 158" d="M2.773,1.673,2.474.125A1,1,0,0,0,.99.79C.537,5.3,1.563,9.877.367,14.351Q.185,16.615,0,18.878q.214,2.488.431,4.976c1.652-2.63-.125-6.054,1.922-8.6Q2.561,8.467,2.773,1.673Z" transform="translate(57.516 665.562)" fill="#e2d8cf"/>
        <path id="Path_159" data-name="Path 159" d="M.888,13.134l.947-.021Q2.011,8.056,2.184,3c-.117-1-.238-2-.356-3C-1.311,4.168.451,8.7.888,13.134Z" transform="translate(62.796 625.685)" fill="#e2d8cf"/>
        <path id="Path_160" data-name="Path 160" d="M0,2.832Q.229,5.1.455,7.37C4.413,6.113,1.626,2.789,2.477.579.594-.411.594-.411,0,2.832Z" transform="translate(33.402 78.717)" fill="#e2d8cf"/>
        <path id="Path_161" data-name="Path 161" d="M1.639,0C-.44,1.324-.5,2.2,1.236,5.649Q1.434,2.824,1.639,0Z" transform="translate(28.795 58.239)" fill="#e2d8cf"/>
        <path id="Path_162" data-name="Path 162" d="M2.376,25.715c.05.452.1.9.153,1.353,3.346-3.132,4.4-6.766,1.452-10.607-2.281-2.976-1.338-6.232-1.552-9.4A15.2,15.2,0,0,0,.414,0c-.1.392-.2.779-.3,1.167C-.4,5.567,1.026,9.8,1.2,14.141q.011,1.169.014,2.335c.068.715.132,1.431.2,2.143C3.632,20.718,1.229,23.466,2.376,25.715Z" transform="translate(54.244 203.624)" fill="#e2d8cf"/>
        <path id="Path_163" data-name="Path 163" d="M2.278,7.094C2.192,4.695,5.631,1.8,1.313,0Q.657,5.926,0,11.859C1.819,10.792.548,8.2,2.278,7.094Z" transform="translate(54.341 222.245)" fill="#e2d8cf"/>
        <path id="Path_164" data-name="Path 164" d="M1.845,12.973A43.8,43.8,0,0,0,.76,0C-1.1,4.517.92,8.7,1.845,12.973Z" transform="translate(53.595 204.791)" fill="#e2d8cf"/>
        <path id="Path_165" data-name="Path 165" d="M5.677,4.321,5.652,2.043C5.172,1.371,4.691.694,4.207.022-1.118-.338.488,3.837,0,6.642,1.068,7.6.986,8.959,1.235,10.2,3.079,13.81,3.46,18.2,6.795,21.014a10.034,10.034,0,0,0-1.424-11.3C3.8,7.756,3.442,5.994,5.677,4.321Z" transform="translate(39.456 100.761)" fill="#e2d8cf"/>
        <path id="Path_166" data-name="Path 166" d="M.151,2.673C.2,4.681,1.937,5.5,2.966,6.82,4.821,4.111,2.913,2.121,1.7,0-.344-.021-.07,1.342.151,2.673Z" transform="translate(11.184 12.3)" fill="#e2d8cf"/>
        <path id="Path_167" data-name="Path 167" d="M5.616,10.582C3.976,6.94,2.552,3.185.075,0-.573,3.8,3.242,6.709,2.143,10.606c.747,1.413,1.662,2.563,3.484,2.3a1.291,1.291,0,0,0,1.246-1.249C6.4,11.368,6.3,10.621,5.616,10.582Z" transform="translate(40.613 110.966)" fill="#e2d8cf"/>
        <path id="Path_168" data-name="Path 168" d="M2.278,21.138c-1.168,1.769-1.242,3.78-1.235,5.805Q.525,29.34,0,31.741c3.549-2.968,4.421-7.1,4.51-11.411.139-6.773.032-13.554.028-20.33-2.185,3.727-.5,7.848-1.15,11.735C1.883,14.732,3.791,18.141,2.278,21.138Z" transform="translate(40.574 580.144)" fill="#e2d8cf"/>
        <path id="Path_169" data-name="Path 169" d="M0,9.4C2.178,6.488.651,3.121,1.111,0A1.73,1.73,0,0,0,.26.274Q.132,4.839,0,9.4Z" transform="translate(42.852 591.879)" fill="#e2d8cf"/>
        <path id="Path_170" data-name="Path 170" d="M6.236,46.982c.345-4.374-.893-8.866.94-13.134q.08-3.417.164-6.834c.965-3.851.633-7.727.2-11.607a6.326,6.326,0,0,1,2.075-4.873A20.645,20.645,0,0,0,9.6,0,54.172,54.172,0,0,0,6.521,14.411a181.908,181.908,0,0,0-1.506,20.22c.053,8.325-.239,16.408-3.157,24.552C-1.445,68.4.723,78.414.434,88.077c2.093-4.559.445-9.432,1.143-14.109.99-2.944.876-6.061,1.409-9.076a2.946,2.946,0,0,0-.21-2.662Z" transform="translate(57.448 591.836)" fill="#e2d8cf"/>
        <path id="Path_171" data-name="Path 171" d="M4.694,17.257c.416.356.836.715,1.256,1.071-.082-1.758-.025-3.872,1.438-4.677,1.89-1.043,1.7,2,3.09,2.42.9-3.207-1.822-5.364-2.281-8.176C5.175,6.525,4.466,3.614,3.6.8L3.6.791C2.58.532,1.345-.764.587.649a4.375,4.375,0,0,0,.772,5.374C4.612,9.166,5.107,13.046,4.694,17.257Z" transform="translate(41.536 104.291)" fill="#e2d8cf"/>
        <path id="Path_172" data-name="Path 172" d="M3.445,0Q1.721,6.46,0,12.924C3.595,9.29,3.705,4.695,3.445,0Z" transform="translate(35.904 630.593)" fill="#e2d8cf"/>
        <path id="Path_173" data-name="Path 173" d="M0,2.281.022,12.817C2.239,8.72.548,4.246,1.221,0A2.326,2.326,0,0,0,0,2.281Z" transform="translate(67.044 589.555)" fill="#e2d8cf"/>
        <path id="Path_174" data-name="Path 174" d="M.024,8.272C2.017,5.869,2.455,3.015,2.319,0-.243,2.246-.019,5.285.024,8.272Z" transform="translate(47.391 736.103)" fill="#e2d8cf"/>
        <path id="Path_175" data-name="Path 175" d="M1.238,0C-.844,2.082.4,4.712.106,7.094,2,4.976.921,2.374,1.238,0Z" transform="translate(34.67 643.506)" fill="#e2d8cf"/>
        <path id="Path_176" data-name="Path 176" d="M.2,0Q.1,5.8,0,11.607C1.9,7.773,1.616,3.9.2,0Z" transform="translate(64.787 607.244)" fill="#e2d8cf"/>
        <path id="Path_177" data-name="Path 177" d="M.1,0C-.274,3.638.2,6.706,4.694,7.094Q2.4,3.548.1,0Z" transform="translate(45.038 105.093)" fill="#e2d8cf"/>
        <path id="Path_178" data-name="Path 178" d="M1.2,0C-.942,2.936.524,6.3.108,9.439a8,8,0,0,0,.968-.114q.1-1.709.192-3.413A7.18,7.18,0,0,0,1.2,0Z" transform="translate(58.917 656.365)" fill="#e2d8cf"/>
        <path id="Path_179" data-name="Path 179" d="M0,2.3Q.032,5.257.067,8.211A7.255,7.255,0,0,0,.1,0Q.055,1.153,0,2.3Z" transform="translate(60.118 654.066)" fill="#e2d8cf"/>
      </g>
    </g>
  </g>
</svg>
